<svg width="294" height="396" viewBox="0 0 294 396" fill="none" xmlns="http://www.w3.org/2000/svg">
<path d="M133.447 313.006C148.291 313.006 163.477 309.637 179.004 302.898C194.629 296.062 206.982 286.053 216.064 272.869C216.064 271.6 215.479 270.525 214.307 269.646C213.232 268.768 212.012 268.328 210.645 268.328C195.996 286.102 174.463 294.988 146.045 294.988C116.064 294.988 93.4082 285.955 78.0762 267.889C62.8418 249.725 55.2246 227.166 55.2246 200.213C55.2246 188.006 56.543 176.238 59.1797 164.91C61.9141 153.484 66.1133 142.596 71.7773 132.244C77.5391 121.795 85.6934 113.348 96.2402 106.902C106.885 100.457 119.287 97.2344 133.447 97.2344C143.115 97.2344 152.051 98.748 160.254 101.775C168.457 104.803 175.195 108.367 180.469 112.469C185.742 116.57 190.869 122.088 195.85 129.021C200.928 135.857 204.736 141.814 207.275 146.893C209.912 151.873 213.037 158.221 216.65 165.936C219.58 165.545 221.387 164.471 222.07 162.713C214.844 133.709 203.906 113.836 189.258 103.094C174.707 92.2539 156.104 86.834 133.447 86.834C124.268 86.834 114.893 87.957 105.322 90.2031C95.752 92.3516 85.8887 96.2578 75.7324 101.922C65.6738 107.488 56.7871 114.422 49.0723 122.723C41.3574 130.926 35.0098 141.766 30.0293 155.242C25.0488 168.621 22.5586 183.611 22.5586 200.213C22.5586 216.814 25.0488 231.805 30.0293 245.184C35.0098 258.562 41.3574 269.354 49.0723 277.557C56.7871 285.76 65.6738 292.645 75.7324 298.211C85.8887 303.68 95.752 307.488 105.322 309.637C114.893 311.883 124.268 313.006 133.447 313.006ZM212.988 172.527C208.789 163.152 204.932 155.438 201.416 149.383C197.9 143.23 193.213 136.395 187.354 128.875C181.494 121.258 174.512 115.35 166.406 111.15C158.301 106.951 149.219 104.412 139.16 103.533C128.027 104.412 118.311 107.977 110.01 114.227C101.709 120.379 95.2637 128.289 90.6738 137.957C86.1816 147.625 82.8613 157.684 80.7129 168.133C78.6621 178.484 77.6367 189.178 77.6367 200.213C77.6367 224.822 83.8379 245.477 96.2402 262.176C108.643 278.875 127.148 287.811 151.758 288.982C175.586 287.811 194.287 278.924 207.861 262.322C211.67 262.322 214.99 263.592 217.822 266.131C220.654 268.572 222.07 271.502 222.07 274.92C212.207 289.275 198.877 300.213 182.08 307.732C165.283 315.252 149.072 319.012 133.447 319.012C123.682 319.012 113.77 317.84 103.711 315.496C93.75 313.25 83.3984 309.246 72.6562 303.484C62.0117 297.625 52.5879 290.35 44.3848 281.658C36.1816 272.967 29.4922 261.59 24.3164 247.527C19.1406 233.367 16.5527 217.596 16.5527 200.213C16.5527 182.049 19.2383 165.838 24.6094 151.58C29.9805 137.225 36.8652 125.75 45.2637 117.156C53.6621 108.562 63.4766 101.434 74.707 95.7695C85.9375 90.0078 96.8262 86.1016 107.373 84.0508C118.018 81.9023 128.711 80.8281 139.453 80.8281C154.102 80.8281 170.02 82.7812 187.207 86.6875C204.395 90.5938 216.699 93.0352 224.121 94.0117C220.898 106.609 219.629 117.693 220.312 127.264C220.996 136.736 223.779 148.357 228.662 162.127C225.83 167.889 220.605 171.355 212.988 172.527Z" fill="#1F5673"/>
<path d="M180.781 240.311C180.521 226.704 180.391 216.434 180.391 209.5C180.391 201.492 180.553 192.394 180.879 182.205C180.944 179.731 186.38 178.169 197.188 177.518C197.383 176.899 197.383 176.134 197.188 175.223C188.659 175.483 182.002 175.613 177.217 175.613C173.213 175.613 167.533 175.483 160.176 175.223C159.915 175.809 159.915 176.574 160.176 177.518C167.663 178.234 171.439 179.796 171.504 182.205C171.829 189.855 171.992 198.953 171.992 209.5C171.992 219.819 171.797 230.089 171.406 240.311C171.341 242.719 167.565 244.282 160.078 244.998C159.818 245.519 159.818 246.284 160.078 247.293C165.612 247.098 171.292 247 177.119 247C184.053 247 190.71 247.098 197.09 247.293C197.35 246.772 197.35 246.007 197.09 244.998C186.283 244.347 180.846 242.785 180.781 240.311ZM158.613 179.422C158.06 177.273 158.125 175.174 158.809 173.123C161.673 173.123 165.547 173.204 170.43 173.367C175.345 173.53 178.763 173.611 180.684 173.611C182.083 173.611 184.785 173.579 188.789 173.514C192.793 173.449 196.26 173.416 199.189 173.416C199.808 175.271 199.84 177.273 199.287 179.422C192.093 180.138 188.464 181.098 188.398 182.303C188.008 190.441 187.812 200.711 187.812 213.113C187.812 225.092 187.975 234.126 188.301 240.213C188.301 240.408 188.382 240.604 188.545 240.799C188.708 240.994 188.936 241.157 189.229 241.287C189.554 241.417 189.88 241.564 190.205 241.727C190.531 241.857 190.97 241.987 191.523 242.117C192.109 242.247 192.598 242.361 192.988 242.459C193.379 242.557 193.9 242.654 194.551 242.752C195.234 242.85 195.771 242.931 196.162 242.996C196.585 243.061 197.139 243.126 197.822 243.191C198.538 243.257 199.027 243.322 199.287 243.387C199.84 245.21 199.743 247.212 198.994 249.393C186.982 249.132 179.691 249.002 177.119 249.002C175.361 249.002 169.225 249.132 158.711 249.393C157.897 247.146 157.897 245.047 158.711 243.094C165.775 242.378 169.339 241.417 169.404 240.213C169.795 232.075 169.99 221.837 169.99 209.5C169.99 199.018 169.827 189.952 169.502 182.303C169.437 181.098 165.807 180.138 158.613 179.422ZM247.871 179.178C245.365 179.373 243.118 179.975 241.133 180.984C239.147 181.993 237.406 183.312 235.908 184.939C234.411 186.535 233.125 188.374 232.051 190.457C231.009 192.508 230.146 194.689 229.463 197C228.812 199.311 228.324 201.704 227.998 204.178C227.705 206.619 227.559 209.028 227.559 211.404C227.559 213.781 227.705 216.206 227.998 218.68C228.324 221.121 228.828 223.497 229.512 225.809C230.195 228.12 231.058 230.301 232.1 232.352C233.174 234.402 234.46 236.225 235.957 237.82C237.487 239.383 239.229 240.652 241.182 241.629C243.167 242.605 245.397 243.191 247.871 243.387C250.41 243.191 252.673 242.605 254.658 241.629C256.644 240.62 258.385 239.334 259.883 237.771C261.413 236.176 262.699 234.354 263.74 232.303C264.814 230.219 265.677 228.038 266.328 225.76C267.012 223.449 267.5 221.072 267.793 218.631C268.118 216.157 268.281 213.748 268.281 211.404C268.281 209.028 268.118 206.619 267.793 204.178C267.5 201.704 267.012 199.311 266.328 197C265.677 194.656 264.814 192.459 263.74 190.408C262.699 188.325 261.413 186.486 259.883 184.891C258.385 183.296 256.628 181.993 254.609 180.984C252.624 179.975 250.378 179.373 247.871 179.178ZM246.162 245.486C242.939 245.486 240.059 245.014 237.52 244.07C234.98 243.094 232.734 241.792 230.781 240.164C228.861 238.504 227.217 236.567 225.85 234.354C224.515 232.14 223.408 229.78 222.529 227.273C221.683 224.734 221.064 222.114 220.674 219.412C220.283 216.678 220.088 214.008 220.088 211.404C220.088 208.8 220.283 206.147 220.674 203.445C221.064 200.711 221.683 198.074 222.529 195.535C223.376 192.996 224.482 190.604 225.85 188.357C227.217 186.111 228.861 184.158 230.781 182.498C232.702 180.838 234.932 179.52 237.471 178.543C240.042 177.566 242.939 177.078 246.162 177.078C249.124 177.078 251.777 177.566 254.121 178.543C256.465 179.487 258.516 180.805 260.273 182.498C262.064 184.158 263.594 186.111 264.863 188.357C266.133 190.604 267.158 192.996 267.939 195.535C268.753 198.074 269.339 200.711 269.697 203.445C270.088 206.147 270.283 208.8 270.283 211.404C270.283 214.008 270.104 216.661 269.746 219.363C269.388 222.033 268.802 224.637 267.988 227.176C267.207 229.682 266.182 232.059 264.912 234.305C263.675 236.518 262.161 238.455 260.371 240.115C258.581 241.775 256.514 243.094 254.17 244.07C251.826 245.014 249.157 245.486 246.162 245.486ZM246.162 249.002C248.408 249.002 250.833 248.774 253.438 248.318C256.042 247.863 258.63 247.081 261.201 245.975C263.805 244.868 266.312 243.387 268.721 241.531C271.13 239.676 273.245 237.365 275.068 234.598C276.924 231.798 278.405 228.494 279.512 224.686C280.618 220.844 281.172 216.417 281.172 211.404C281.172 206.489 280.618 202.143 279.512 198.367C278.438 194.559 276.989 191.255 275.166 188.455C273.343 185.656 271.243 183.312 268.867 181.424C266.491 179.536 264.001 178.022 261.396 176.883C258.792 175.711 256.172 174.881 253.535 174.393C250.931 173.872 248.473 173.611 246.162 173.611C243.916 173.611 241.442 173.839 238.74 174.295C236.038 174.718 233.32 175.483 230.586 176.59C227.852 177.664 225.199 179.129 222.627 180.984C220.055 182.84 217.777 185.167 215.791 187.967C213.805 190.766 212.21 194.103 211.006 197.977C209.801 201.818 209.199 206.294 209.199 211.404C209.199 216.352 209.769 220.714 210.908 224.49C212.08 228.266 213.626 231.554 215.547 234.354C217.467 237.12 219.681 239.448 222.188 241.336C224.727 243.191 227.363 244.689 230.098 245.828C232.832 246.967 235.583 247.781 238.35 248.27C241.117 248.758 243.721 249.002 246.162 249.002ZM247.871 251.199C241.328 251.199 235.534 250.239 230.488 248.318C225.443 246.43 221.195 243.761 217.744 240.311C214.294 236.827 211.673 232.645 209.883 227.762C208.092 222.846 207.197 217.394 207.197 211.404C207.197 205.415 208.092 199.979 209.883 195.096C211.673 190.18 214.294 185.997 217.744 182.547C221.195 179.064 225.443 176.378 230.488 174.49C235.534 172.57 241.328 171.609 247.871 171.609C254.023 171.609 259.606 172.488 264.619 174.246C269.665 176.004 273.962 178.576 277.51 181.961C281.09 185.314 283.841 189.464 285.762 194.412C287.715 199.36 288.691 205.024 288.691 211.404C288.691 217.817 287.715 223.497 285.762 228.445C283.841 233.361 281.09 237.511 277.51 240.896C273.962 244.282 269.665 246.837 264.619 248.562C259.606 250.32 254.023 251.199 247.871 251.199Z" fill="#DA413F"/>
</svg>
